<mxfile host="app.diagrams.net" modified="2023-11-18T12:26:16.272Z" agent="Mozilla/5.0 (Windows NT 10.0; Win64; x64) AppleWebKit/537.36 (KHTML, like Gecko) Chrome/119.0.0.0 Safari/537.36" etag="eYwnFFENwXJDemNwmRoi" version="22.1.3" type="github">
  <diagram name="PÃ¡gina-1" id="6NMN6T1re0LM4AbhH7DN">
    <mxGraphModel dx="1290" dy="566" grid="0" gridSize="10" guides="1" tooltips="1" connect="1" arrows="1" fold="1" page="0" pageScale="1" pageWidth="827" pageHeight="1169" math="0" shadow="0">
      <root>
        <mxCell id="0" />
        <mxCell id="1" parent="0" />
        <mxCell id="rWQZ6nBazz-qRqC81-xw-2" value="Livro" style="swimlane;whiteSpace=wrap;html=1;fontSize=16;" parent="1" vertex="1">
          <mxGeometry x="100" y="99" width="200" height="200" as="geometry" />
        </mxCell>
        <mxCell id="rWQZ6nBazz-qRqC81-xw-14" value="- id : int" style="text;strokeColor=none;fillColor=none;align=left;verticalAlign=top;spacingLeft=4;spacingRight=4;overflow=hidden;rotatable=0;points=[[0,0.5],[1,0.5]];portConstraint=eastwest;whiteSpace=wrap;html=1;fontSize=16;" parent="rWQZ6nBazz-qRqC81-xw-2" vertex="1">
          <mxGeometry x="17" y="35" width="100" height="26" as="geometry" />
        </mxCell>
        <mxCell id="rWQZ6nBazz-qRqC81-xw-18" value="- titulo: str" style="text;strokeColor=none;fillColor=none;align=left;verticalAlign=top;spacingLeft=4;spacingRight=4;overflow=hidden;rotatable=0;points=[[0,0.5],[1,0.5]];portConstraint=eastwest;whiteSpace=wrap;html=1;fontSize=16;" parent="rWQZ6nBazz-qRqC81-xw-2" vertex="1">
          <mxGeometry x="17" y="69" width="158" height="26" as="geometry" />
        </mxCell>
        <mxCell id="rWQZ6nBazz-qRqC81-xw-19" value="- nome_autor: str" style="text;strokeColor=none;fillColor=none;align=left;verticalAlign=top;spacingLeft=4;spacingRight=4;overflow=hidden;rotatable=0;points=[[0,0.5],[1,0.5]];portConstraint=eastwest;whiteSpace=wrap;html=1;fontSize=16;" parent="rWQZ6nBazz-qRqC81-xw-2" vertex="1">
          <mxGeometry x="17" y="106" width="158" height="28" as="geometry" />
        </mxCell>
        <mxCell id="rWQZ6nBazz-qRqC81-xw-20" value="-&amp;nbsp;resumo: str" style="text;strokeColor=none;fillColor=none;align=left;verticalAlign=top;spacingLeft=4;spacingRight=4;overflow=hidden;rotatable=0;points=[[0,0.5],[1,0.5]];portConstraint=eastwest;whiteSpace=wrap;html=1;fontSize=16;" parent="rWQZ6nBazz-qRqC81-xw-2" vertex="1">
          <mxGeometry x="17" y="139" width="158" height="26" as="geometry" />
        </mxCell>
        <mxCell id="rWQZ6nBazz-qRqC81-xw-4" value="Categoria" style="swimlane;whiteSpace=wrap;html=1;fontSize=16;" parent="1" vertex="1">
          <mxGeometry x="572" y="96" width="200" height="200" as="geometry" />
        </mxCell>
        <mxCell id="rWQZ6nBazz-qRqC81-xw-15" value="- id : int" style="text;strokeColor=none;fillColor=none;align=left;verticalAlign=top;spacingLeft=4;spacingRight=4;overflow=hidden;rotatable=0;points=[[0,0.5],[1,0.5]];portConstraint=eastwest;whiteSpace=wrap;html=1;fontSize=16;" parent="rWQZ6nBazz-qRqC81-xw-4" vertex="1">
          <mxGeometry x="21" y="32" width="158" height="26" as="geometry" />
        </mxCell>
        <mxCell id="rWQZ6nBazz-qRqC81-xw-16" value="- nome : str" style="text;strokeColor=none;fillColor=none;align=left;verticalAlign=top;spacingLeft=4;spacingRight=4;overflow=hidden;rotatable=0;points=[[0,0.5],[1,0.5]];portConstraint=eastwest;whiteSpace=wrap;html=1;fontSize=16;" parent="rWQZ6nBazz-qRqC81-xw-4" vertex="1">
          <mxGeometry x="21" y="61" width="158" height="26" as="geometry" />
        </mxCell>
        <mxCell id="rWQZ6nBazz-qRqC81-xw-17" value="- descricao: str" style="text;strokeColor=none;fillColor=none;align=left;verticalAlign=top;spacingLeft=4;spacingRight=4;overflow=hidden;rotatable=0;points=[[0,0.5],[1,0.5]];portConstraint=eastwest;whiteSpace=wrap;html=1;fontSize=16;" parent="rWQZ6nBazz-qRqC81-xw-4" vertex="1">
          <mxGeometry x="21" y="90" width="158" height="26" as="geometry" />
        </mxCell>
        <mxCell id="rWQZ6nBazz-qRqC81-xw-8" value="Relation" style="endArrow=open;html=1;endSize=12;startArrow=diamondThin;startSize=14;startFill=0;edgeStyle=orthogonalEdgeStyle;rounded=0;fontSize=12;curved=1;exitX=0;exitY=0.5;exitDx=0;exitDy=0;entryX=1;entryY=0.5;entryDx=0;entryDy=0;" parent="1" source="rWQZ6nBazz-qRqC81-xw-4" target="rWQZ6nBazz-qRqC81-xw-2" edge="1">
          <mxGeometry relative="1" as="geometry">
            <mxPoint x="280" y="362" as="sourcePoint" />
            <mxPoint x="440" y="362" as="targetPoint" />
          </mxGeometry>
        </mxCell>
        <mxCell id="rWQZ6nBazz-qRqC81-xw-9" value="0..n" style="edgeLabel;resizable=0;html=1;align=left;verticalAlign=top;fontSize=16;" parent="rWQZ6nBazz-qRqC81-xw-8" connectable="0" vertex="1">
          <mxGeometry x="-1" relative="1" as="geometry" />
        </mxCell>
        <mxCell id="rWQZ6nBazz-qRqC81-xw-10" value="1" style="edgeLabel;resizable=0;html=1;align=right;verticalAlign=top;fontSize=16;" parent="rWQZ6nBazz-qRqC81-xw-8" connectable="0" vertex="1">
          <mxGeometry x="1" relative="1" as="geometry" />
        </mxCell>
        <mxCell id="rWQZ6nBazz-qRqC81-xw-11" value="Text" style="edgeLabel;html=1;align=center;verticalAlign=middle;resizable=0;points=[];fontSize=16;" parent="rWQZ6nBazz-qRqC81-xw-8" vertex="1" connectable="0">
          <mxGeometry x="-0.015" y="17" relative="1" as="geometry">
            <mxPoint as="offset" />
          </mxGeometry>
        </mxCell>
        <mxCell id="cDAbdLEeagyEUdNZNR67-1" value="&lt;font style=&quot;font-size: 16px;&quot;&gt;&amp;lt;&amp;lt;enumerate&amp;gt;&amp;gt;&lt;br&gt;Tamanho&lt;/font&gt;" style="swimlane;fontStyle=0;childLayout=stackLayout;horizontal=1;startSize=40;horizontalStack=0;resizeParent=1;resizeParentMax=0;resizeLast=0;collapsible=1;marginBottom=0;whiteSpace=wrap;html=1;" parent="1" vertex="1">
          <mxGeometry x="100" y="408" width="205" height="130" as="geometry" />
        </mxCell>
        <mxCell id="cDAbdLEeagyEUdNZNR67-2" value="PEQUENO" style="text;strokeColor=none;fillColor=none;align=left;verticalAlign=middle;spacingLeft=4;spacingRight=4;overflow=hidden;points=[[0,0.5],[1,0.5]];portConstraint=eastwest;rotatable=0;whiteSpace=wrap;html=1;" parent="cDAbdLEeagyEUdNZNR67-1" vertex="1">
          <mxGeometry y="40" width="205" height="30" as="geometry" />
        </mxCell>
        <mxCell id="cDAbdLEeagyEUdNZNR67-3" value="MEDIO" style="text;strokeColor=none;fillColor=none;align=left;verticalAlign=middle;spacingLeft=4;spacingRight=4;overflow=hidden;points=[[0,0.5],[1,0.5]];portConstraint=eastwest;rotatable=0;whiteSpace=wrap;html=1;" parent="cDAbdLEeagyEUdNZNR67-1" vertex="1">
          <mxGeometry y="70" width="205" height="30" as="geometry" />
        </mxCell>
        <mxCell id="cDAbdLEeagyEUdNZNR67-4" value="GRANDE" style="text;strokeColor=none;fillColor=none;align=left;verticalAlign=middle;spacingLeft=4;spacingRight=4;overflow=hidden;points=[[0,0.5],[1,0.5]];portConstraint=eastwest;rotatable=0;whiteSpace=wrap;html=1;" parent="cDAbdLEeagyEUdNZNR67-1" vertex="1">
          <mxGeometry y="100" width="205" height="30" as="geometry" />
        </mxCell>
        <mxCell id="cDAbdLEeagyEUdNZNR67-5" value="" style="endArrow=none;html=1;rounded=0;exitX=0.5;exitY=0;exitDx=0;exitDy=0;entryX=0.5;entryY=1;entryDx=0;entryDy=0;" parent="1" source="cDAbdLEeagyEUdNZNR67-1" target="rWQZ6nBazz-qRqC81-xw-2" edge="1">
          <mxGeometry width="50" height="50" relative="1" as="geometry">
            <mxPoint x="340" y="371" as="sourcePoint" />
            <mxPoint x="390" y="321" as="targetPoint" />
          </mxGeometry>
        </mxCell>
      </root>
    </mxGraphModel>
  </diagram>
</mxfile>
